<?xml version="1.0" encoding="utf-8"?>
<!-- Generated by Mocodo 4.1.2 -->
<svg width="348" height="424" viewBox="0 0 348 424" xmlns="http://www.w3.org/2000/svg">
<rect x="0" y="0" width="348" height="424" fill="#ffffbf" stroke="none" stroke-width="0"/>

<!-- Association ORDER -->
<g>
	<line x1="290" y1="68" x2="169" y2="68" stroke="#74add1" stroke-width="2"/>
	<line x1="53" y1="68" x2="169" y2="68" stroke="#74add1" stroke-width="2"/>
	<polygon points="97 68 109 62 105 68 109 74" fill="#74add1" stroke-width="0"/>
	<g>
		<path d="M184 43 a14 14 90 0 1 14 14 V68 h-58 V57 a14 14 90 0 1 14 -14" fill="#abd9e9" stroke="#abd9e9" stroke-width="0"/>
		<path d="M198 68 v11 a14 14 90 0 1 -14 14 H154 a14 14 90 0 1 -14 -14 V68 H58" fill="#e0f3f8" stroke="#e0f3f8" stroke-width="0"/>
		<rect x="140" y="43" width="58" height="50" fill="none" rx="14" stroke="#74add1" stroke-width="2"/>
		<line x1="140" y1="68" x2="198" y2="68" stroke="#74add1" stroke-width="1"/>
		<text x="147" y="60.75" fill="#000000" font-family="Verdana" font-size="12">ORDER</text>
	</g>
	<text x="223" y="85" fill="#d73027" font-family="Verdana" font-size="12">0,N</text>
	<text x="102" y="85" fill="#d73027" font-family="Verdana" font-size="12">1,1</text>
</g>

<!-- Association COMPOSE -->
<g>
	<line x1="169" y1="220" x2="53" y2="220" stroke="#74add1" stroke-width="2"/>
	<polygon points="123 220 111 226 115 220 111 214" fill="#74add1" stroke-width="0"/>
	<line x1="53" y1="68" x2="53" y2="220" stroke="#74add1" stroke-width="2"/>
	<g>
		<path d="M77 195 a14 14 90 0 1 14 14 V220 h-76 V209 a14 14 90 0 1 14 -14" fill="#abd9e9" stroke="#abd9e9" stroke-width="0"/>
		<path d="M91 220 v11 a14 14 90 0 1 -14 14 H29 a14 14 90 0 1 -14 -14 V220 H76" fill="#e0f3f8" stroke="#e0f3f8" stroke-width="0"/>
		<rect x="15" y="195" width="76" height="50" fill="none" rx="14" stroke="#74add1" stroke-width="2"/>
		<line x1="15" y1="220" x2="91" y2="220" stroke="#74add1" stroke-width="1"/>
		<text x="23" y="212.75" fill="#000000" font-family="Verdana" font-size="12">COMPOSE</text>
		<text x="22" y="237.8" fill="#000000" font-family="Verdana" font-size="12">quantity</text>
	</g>
	<text x="96" y="237" fill="#d73027" font-family="Verdana" font-size="12">0,N</text>
	<text x="58" y="144" fill="#d73027" font-family="Verdana" font-size="12">1,N</text>
</g>

<!-- Association ASSOCIATE -->
<g>
	<line x1="290" y1="364" x2="290" y2="220" stroke="#74add1" stroke-width="2"/>
	<polygon points="290 313 284 301 290 305 296 301" fill="#74add1" stroke-width="0"/>
	<line x1="169" y1="220" x2="290" y2="220" stroke="#74add1" stroke-width="2"/>
	<g>
		<path d="M319 195 a14 14 90 0 1 14 14 V220 h-86 V209 a14 14 90 0 1 14 -14" fill="#abd9e9" stroke="#abd9e9" stroke-width="0"/>
		<path d="M333 220 v11 a14 14 90 0 1 -14 14 H261 a14 14 90 0 1 -14 -14 V220 H86" fill="#e0f3f8" stroke="#e0f3f8" stroke-width="0"/>
		<rect x="247" y="195" width="86" height="50" fill="none" rx="14" stroke="#74add1" stroke-width="2"/>
		<line x1="247" y1="220" x2="333" y2="220" stroke="#74add1" stroke-width="1"/>
		<text x="254" y="212.75" fill="#000000" font-family="Verdana" font-size="12">ASSOCIATE</text>
	</g>
	<text x="295" y="305" fill="#d73027" font-family="Verdana" font-size="12">0,N</text>
	<text x="220" y="237" fill="#d73027" font-family="Verdana" font-size="12">0,1</text>
</g>

<!-- Association FILTER -->
<g>
	<line x1="53" y1="364" x2="169" y2="364" stroke="#74add1" stroke-width="2"/>
	<line x1="169" y1="220" x2="169" y2="364" stroke="#74add1" stroke-width="2"/>
	<polygon points="169 288 175 300 169 296 163 300" fill="#74add1" stroke-width="0"/>
	<g>
		<path d="M184 339 a14 14 90 0 1 14 14 V364 h-58 V353 a14 14 90 0 1 14 -14" fill="#abd9e9" stroke="#abd9e9" stroke-width="0"/>
		<path d="M198 364 v11 a14 14 90 0 1 -14 14 H154 a14 14 90 0 1 -14 -14 V364 H58" fill="#e0f3f8" stroke="#e0f3f8" stroke-width="0"/>
		<rect x="140" y="339" width="58" height="50" fill="none" rx="14" stroke="#74add1" stroke-width="2"/>
		<line x1="140" y1="364" x2="198" y2="364" stroke="#74add1" stroke-width="1"/>
		<text x="148" y="356.75" fill="#000000" font-family="Verdana" font-size="12">FILTER</text>
	</g>
	<text x="98" y="381" fill="#d73027" font-family="Verdana" font-size="12">0,N</text>
	<text x="174" y="305" fill="#d73027" font-family="Verdana" font-size="12">0,N</text>
</g>

<!-- Entity ORDERS -->
<g>
	<g>
		<rect x="9" y="9" width="88" height="25" fill="#fdae61" stroke="none" stroke-width="0" opacity="1"/>
		<rect x="9" y="34" width="88" height="93" fill="#fee090" stroke="none" stroke-width="0" opacity="1"/>
		<rect x="9" y="9" width="88" height="118" fill="none" stroke="#f46d43" stroke-width="2" opacity="1"/>
		<line x1="9" y1="34" x2="97" y2="34" stroke="#f46d43" stroke-width="1"/>
	</g>
	<text x="27" y="26.75" fill="#000000" font-family="Verdana" font-size="12">ORDERS</text>
	<text x="14" y="51.8" fill="#000000" font-family="Verdana" font-size="12">num_order</text>
	<line x1="14" y1="54" x2="82" y2="54" stroke="#000000" stroke-width="1"/>
	<text x="14" y="68.8" fill="#000000" font-family="Verdana" font-size="12">num_invoice</text>
	<text x="14" y="85.8" fill="#000000" font-family="Verdana" font-size="12">status</text>
	<text x="14" y="102.8" fill="#000000" font-family="Verdana" font-size="12">created_at</text>
	<text x="14" y="119.8" fill="#000000" font-family="Verdana" font-size="12">updated_at</text>
</g>

<!-- Entity USERS -->
<g>
	<g>
		<rect x="250" y="9" width="80" height="25" fill="#fdae61" stroke="none" stroke-width="0" opacity="1"/>
		<rect x="250" y="34" width="80" height="93" fill="#fee090" stroke="none" stroke-width="0" opacity="1"/>
		<rect x="250" y="9" width="80" height="118" fill="none" stroke="#f46d43" stroke-width="2" opacity="1"/>
		<line x1="250" y1="34" x2="330" y2="34" stroke="#f46d43" stroke-width="1"/>
	</g>
	<text x="269" y="26.75" fill="#000000" font-family="Verdana" font-size="12">USERS</text>
	<text x="255" y="51.8" fill="#000000" font-family="Verdana" font-size="12">num_user</text>
	<line x1="255" y1="54" x2="317" y2="54" stroke="#000000" stroke-width="1"/>
	<text x="255" y="68.8" fill="#000000" font-family="Verdana" font-size="12">name</text>
	<text x="255" y="85.8" fill="#000000" font-family="Verdana" font-size="12">password</text>
	<text x="255" y="102.8" fill="#000000" font-family="Verdana" font-size="12">created_at</text>
	<text x="255" y="119.8" fill="#000000" font-family="Verdana" font-size="12">updated_at</text>
</g>

<!-- Entity PRODUCTS -->
<g>
	<g>
		<rect x="123" y="152" width="92" height="25" fill="#fdae61" stroke="none" stroke-width="0" opacity="1"/>
		<rect x="123" y="177" width="92" height="111" fill="#fee090" stroke="none" stroke-width="0" opacity="1"/>
		<rect x="123" y="152" width="92" height="136" fill="none" stroke="#f46d43" stroke-width="2" opacity="1"/>
		<line x1="123" y1="177" x2="215" y2="177" stroke="#f46d43" stroke-width="1"/>
	</g>
	<text x="135" y="169.75" fill="#000000" font-family="Verdana" font-size="12">PRODUCTS</text>
	<text x="128" y="194.8" fill="#000000" font-family="Verdana" font-size="12">num_product</text>
	<line x1="128" y1="197" x2="209" y2="197" stroke="#000000" stroke-width="1"/>
	<text x="128" y="211.8" fill="#000000" font-family="Verdana" font-size="12">name</text>
	<text x="128" y="228.8" fill="#000000" font-family="Verdana" font-size="12">quantity</text>
	<text x="128" y="245.8" fill="#000000" font-family="Verdana" font-size="12">status</text>
	<text x="128" y="262.8" fill="#000000" font-family="Verdana" font-size="12">created_at</text>
	<text x="128" y="279.8" fill="#000000" font-family="Verdana" font-size="12">updated_at</text>
</g>

<!-- Entity TAGS -->
<g>
	<g>
		<rect x="13" y="313" width="80" height="25" fill="#fdae61" stroke="none" stroke-width="0" opacity="1"/>
		<rect x="13" y="338" width="80" height="77" fill="#fee090" stroke="none" stroke-width="0" opacity="1"/>
		<rect x="13" y="313" width="80" height="102" fill="none" stroke="#f46d43" stroke-width="2" opacity="1"/>
		<line x1="13" y1="338" x2="93" y2="338" stroke="#f46d43" stroke-width="1"/>
	</g>
	<text x="36" y="330.75" fill="#000000" font-family="Verdana" font-size="12">TAGS</text>
	<text x="18" y="355.8" fill="#000000" font-family="Verdana" font-size="12">num_tag</text>
	<line x1="18" y1="358" x2="73" y2="358" stroke="#000000" stroke-width="1"/>
	<text x="18" y="372.8" fill="#000000" font-family="Verdana" font-size="12">name</text>
	<text x="18" y="389.8" fill="#000000" font-family="Verdana" font-size="12">created_at</text>
	<text x="18" y="406.8" fill="#000000" font-family="Verdana" font-size="12">updated_at</text>
</g>

<!-- Entity CATEGORIES -->
<g>
	<g>
		<rect x="241" y="313" width="98" height="25" fill="#fdae61" stroke="none" stroke-width="0" opacity="1"/>
		<rect x="241" y="338" width="98" height="77" fill="#fee090" stroke="none" stroke-width="0" opacity="1"/>
		<rect x="241" y="313" width="98" height="102" fill="none" stroke="#f46d43" stroke-width="2" opacity="1"/>
		<line x1="241" y1="338" x2="339" y2="338" stroke="#f46d43" stroke-width="1"/>
	</g>
	<text x="250" y="330.75" fill="#000000" font-family="Verdana" font-size="12">CATEGORIES</text>
	<text x="246" y="355.8" fill="#000000" font-family="Verdana" font-size="12">num_category</text>
	<line x1="246" y1="358" x2="334" y2="358" stroke="#000000" stroke-width="1"/>
	<text x="246" y="372.8" fill="#000000" font-family="Verdana" font-size="12">name</text>
	<text x="246" y="389.8" fill="#000000" font-family="Verdana" font-size="12">created_at</text>
	<text x="246" y="406.8" fill="#000000" font-family="Verdana" font-size="12">updated_at</text>
</g>
</svg>